<svg viewBox="0 0 900 700" width="900" height="700" xmlns="http://www.w3.org/2000/svg">
  <defs>

    <!-- VHS tape distortion noise -->
    <filter id="vhsNoise" x="0" y="0" width="100%" height="100%">
      <feTurbulence type="fractalNoise" baseFrequency="0.65 0.002" numOctaves="1" seed="2" result="noise"/>
      <feColorMatrix type="saturate" values="0" in="noise" result="greyNoise"/>
      <feBlend in="SourceGraphic" in2="greyNoise" mode="overlay" result="blended"/>
      <feComposite in="blended" in2="SourceGraphic" operator="in"/>
    </filter>

    <!-- Scanline filter -->
    <filter id="scanlines" x="0" y="0" width="100%" height="100%">
      <feTurbulence type="fractalNoise" baseFrequency="0 0.5" numOctaves="1" seed="1" result="scanNoise"/>
      <feColorMatrix values="0 0 0 0 0  0 0 0 0 0  0 0 0 0 0  0 0 0 -2 1.2" in="scanNoise" result="scanMask"/>
      <feBlend in="SourceGraphic" in2="scanMask" mode="multiply"/>
    </filter>

    <!-- Colour bleed / chroma shift approximation -->
    <filter id="chromaBleed">
      <feOffset in="SourceGraphic" dx="2" dy="0" result="shifted"/>
      <feColorMatrix in="shifted" type="matrix"
        values="1 0 0 0 0  0 0 0 0 0  0 0 0 0 0  0 0 0 0.4 0" result="redBleed"/>
      <feColorMatrix in="SourceGraphic" type="matrix"
        values="0 0 0 0 0  0 1 0 0 0  0 0 1 0 0  0 0 0 1 0" result="gbChannel"/>
      <feMerge><feMergeNode in="redBleed"/><feMergeNode in="gbChannel"/></feMerge>
    </filter>

    <!-- Soft glow -->
    <filter id="softGlow" x="-20%" y="-20%" width="140%" height="140%">
      <feGaussianBlur stdDeviation="8" result="blur"/>
      <feMerge><feMergeNode in="blur"/><feMergeNode in="SourceGraphic"/></feMerge>
    </filter>
    <filter id="tinyGlow" x="-30%" y="-30%" width="160%" height="160%">
      <feGaussianBlur stdDeviation="3" result="blur"/>
      <feMerge><feMergeNode in="blur"/><feMergeNode in="SourceGraphic"/></feMerge>
    </filter>
    <filter id="blurSm" x="-10%" y="-10%" width="120%" height="120%">
      <feGaussianBlur stdDeviation="1.5"/>
    </filter>
    <filter id="blurMed" x="-20%" y="-20%" width="140%" height="140%">
      <feGaussianBlur stdDeviation="4"/>
    </filter>
    <filter id="blurLg" x="-30%" y="-30%" width="160%" height="160%">
      <feGaussianBlur stdDeviation="10"/>
    </filter>

    <!-- VHS horizontal glitch band -->
    <filter id="glitchBand">
      <feTurbulence type="turbulence" baseFrequency="0.05 0.8" numOctaves="1" seed="5" result="t"/>
      <feDisplacementMap in="SourceGraphic" in2="t" scale="6" xChannelSelector="R" yChannelSelector="G"/>
    </filter>

    <!-- Overall screen phosphor glow -->
    <radialGradient id="screenGlow" cx="50%" cy="50%" r="60%">
      <stop offset="0%"   stop-color="#204028" stop-opacity="0.12"/>
      <stop offset="100%" stop-color="#000000" stop-opacity="0"/>
    </radialGradient>

    <!-- Vignette -->
    <radialGradient id="vignette" cx="50%" cy="50%" r="65%">
      <stop offset="0%"   stop-color="#000000" stop-opacity="0"/>
      <stop offset="65%"  stop-color="#000000" stop-opacity="0.55"/>
      <stop offset="100%" stop-color="#000000" stop-opacity="0.92"/>
    </radialGradient>

    <!-- BEFORE panel gradients — lush, warm, alive -->
    <linearGradient id="skyBefore" x1="0" y1="0" x2="0" y2="1">
      <stop offset="0%"   stop-color="#1a3850"/>
      <stop offset="55%"  stop-color="#2a5870"/>
      <stop offset="100%" stop-color="#1e4058"/>
    </linearGradient>
    <linearGradient id="oceanBefore" x1="0" y1="0" x2="0" y2="1">
      <stop offset="0%"   stop-color="#1a4860"/>
      <stop offset="50%"  stop-color="#1e5870"/>
      <stop offset="100%" stop-color="#0e2838"/>
    </linearGradient>
    <linearGradient id="forestGrad" x1="0" y1="0" x2="0" y2="1">
      <stop offset="0%"   stop-color="#1a3818"/>
      <stop offset="60%"  stop-color="#243e1e"/>
      <stop offset="100%" stop-color="#182e10"/>
    </linearGradient>

    <!-- NOW panel gradients — dead, toxic, grey -->
    <linearGradient id="skyNow" x1="0" y1="0" x2="0" y2="1">
      <stop offset="0%"   stop-color="#1c1a14"/>
      <stop offset="50%"  stop-color="#282418"/>
      <stop offset="100%" stop-color="#1a1810"/>
    </linearGradient>
    <linearGradient id="wasteGrad" x1="0" y1="0" x2="0" y2="1">
      <stop offset="0%"   stop-color="#2a2418"/>
      <stop offset="100%" stop-color="#1a1808"/>
    </linearGradient>
    <linearGradient id="waterNow" x1="0" y1="0" x2="0" y2="1">
      <stop offset="0%"   stop-color="#1a1e10"/>
      <stop offset="100%" stop-color="#0e1008"/>
    </linearGradient>

    <!-- Scanline pattern (overlay) -->
    <pattern id="scanlinePattern" x="0" y="0" width="900" height="3" patternUnits="userSpaceOnUse">
      <rect width="900" height="1.5" y="0" fill="#000000" opacity="0.18"/>
    </pattern>

    <!-- Static/snow grain pattern -->
    <pattern id="snowPattern" x="0" y="0" width="4" height="4" patternUnits="userSpaceOnUse">
      <rect width="4" height="4" fill="none"/>
      <rect x="0" y="0" width="1" height="1" fill="#ffffff" opacity="0.06"/>
      <rect x="2" y="2" width="1" height="1" fill="#ffffff" opacity="0.04"/>
      <rect x="1" y="3" width="1" height="1" fill="#ffffff" opacity="0.03"/>
    </pattern>

    <!-- VHS colour mute — desaturate everything slightly -->
    <filter id="vhsColour">
      <feColorMatrix type="matrix"
        values="0.85 0.10 0.05 0 0
                0.05 0.82 0.10 0 0
                0.05 0.08 0.82 0 0
                0    0    0    1 0"/>
    </filter>

    <!-- Tape age — warm yellow tint overall -->
    <filter id="tapeAge">
      <feColorMatrix type="matrix"
        values="1.05 0.02 0    0 0.04
                0.02 0.98 0    0 0.02
                0    0    0.88 0 0
                0    0    0    1 0"/>
    </filter>

  </defs>

  <!-- ══════════════════════════════════════ -->
  <!-- BASE — BLACK SCREEN                   -->
  <!-- ══════════════════════════════════════ -->
  <rect width="900" height="700" fill="#0a0c08"/>

  <!-- Slight phosphor green warmth over whole screen -->
  <rect width="900" height="700" fill="url(#screenGlow)"/>

  <!-- ══════════════════════════════════════ -->
  <!-- TOP MESSAGE BAR                       -->
  <!-- ══════════════════════════════════════ -->
  <rect x="0" y="0" width="900" height="78" fill="#000000" opacity="0.75"/>
  <line x1="0" y1="78" x2="900" y2="78" stroke="#303828" stroke-width="1.5"/>

  <!-- REC indicator -->
  <circle cx="38" cy="22" r="6" fill="#c82010" opacity="0.9" filter="url(#tinyGlow)"/>
  <text x="50" y="27" font-family="monospace" font-size="11" fill="#c84030" opacity="0.88">REC</text>

  <!-- Tape counter -->
  <text x="800" y="27" font-family="monospace" font-size="11" fill="#408040" opacity="0.7" text-anchor="end">SP  04:22:17</text>

  <!-- Main message — centered, slightly flickery feel via opacity -->
  <text x="450" y="34" font-family="monospace" font-size="13" fill="#c8c8a8" text-anchor="middle" opacity="0.92" letter-spacing="1">PLEASE REMEMBER ALL THE CONTENTS OF THIS TAPE</text>
  <text x="450" y="56" font-family="monospace" font-size="11.5" fill="#a8a888" text-anchor="middle" opacity="0.80" letter-spacing="0.5">AND PASS IT ON TO OTHERS</text>

  <!-- Horizontal rule under message -->
  <line x1="60" y1="66" x2="840" y2="66" stroke="#303828" stroke-width="0.8" opacity="0.6"/>

  <!-- ══════════════════════════════════════ -->
  <!-- LEFT PANEL — BEFORE                   -->
  <!-- ══════════════════════════════════════ -->

  <!-- Panel shadow -->
  <rect x="38" y="94" width="392" height="498" rx="3" fill="#000" opacity="0.55"/>
  <!-- Panel border -->
  <rect x="36" y="92" width="392" height="498" rx="3" fill="#181e14" stroke="#303828" stroke-width="1.5"/>

  <!-- ── BEFORE SCENE 1: OCEAN ── -->
  <!-- Sky -->
  <rect x="38" y="94" width="388" height="240" fill="url(#skyBefore)"/>

  <!-- Clouds — hand-painted style, soft -->
  <ellipse cx="130" cy="130" rx="72" ry="28" fill="#3a5870" opacity="0.5" filter="url(#blurSm)"/>
  <ellipse cx="118" cy="126" rx="55" ry="22" fill="#4a6880" opacity="0.4" filter="url(#blurSm)"/>
  <ellipse cx="148" cy="132" rx="48" ry="18" fill="#3e6070" opacity="0.45"/>
  <ellipse cx="310" cy="115" rx="65" ry="22" fill="#385868" opacity="0.4" filter="url(#blurSm)"/>
  <ellipse cx="298" cy="112" rx="48" ry="18" fill="#486878" opacity="0.38"/>
  <ellipse cx="328" cy="118" rx="42" ry="15" fill="#3a5870" opacity="0.38"/>
  <!-- Distant clouds subtle -->
  <ellipse cx="220" cy="105" rx="38" ry="12" fill="#304858" opacity="0.3"/>
  <ellipse cx="390" cy="108" rx="32" ry="10" fill="#304858" opacity="0.25"/>

  <!-- Sun — warm but muted through VHS palette -->
  <circle cx="82" cy="115" r="22" fill="#c8a840" opacity="0.55" filter="url(#blurMed)"/>
  <circle cx="82" cy="115" r="14" fill="#d4b848" opacity="0.65"/>
  <circle cx="82" cy="115" r="9"  fill="#e0c858" opacity="0.7"/>

  <!-- Ocean surface -->
  <rect x="38" y="210" width="388" height="124" fill="url(#oceanBefore)"/>
  <!-- Ocean shimmer lines -->
  <g stroke="#2a6880" stroke-width="0.8" opacity="0.35">
    <path d="M 50 220 Q 110 217 168 221 Q 226 225 284 220 Q 340 215 400 219"/>
    <path d="M 45 232 Q 108 228 170 233 Q 232 238 295 232 Q 358 226 418 231"/>
    <path d="M 50 244 Q 115 240 178 245 Q 242 250 305 244 Q 368 238 420 243"/>
    <path d="M 48 256 Q 112 252 176 257 Q 240 262 304 256 Q 368 250 422 255"/>
    <path d="M 50 268 Q 115 264 180 269 Q 245 274 310 268 Q 375 262 422 267"/>
    <path d="M 52 280 Q 118 276 182 281 Q 248 286 312 280 Q 378 274 422 279"/>
    <path d="M 54 292 Q 118 288 184 293 Q 248 298 314 292 Q 380 286 422 291"/>
    <path d="M 55 304 Q 120 300 186 305 Q 252 310 318 304 Q 384 298 422 303"/>
    <path d="M 56 316 Q 122 312 188 317 Q 254 322 320 316 Q 386 310 422 315"/>
  </g>
  <!-- Ocean depth reflections -->
  <ellipse cx="232" cy="275" rx="88" ry="18" fill="#386888" opacity="0.18"/>
  <ellipse cx="180" cy="305" rx="55" ry="10" fill="#2a5878" opacity="0.15"/>

  <!-- Small whale silhouette in ocean -->
  <path d="M 280 252 Q 300 246 320 249 Q 335 252 340 258 Q 330 264 315 262 Q 298 260 282 256 Z"
        fill="#0e2838" opacity="0.6"/>
  <path d="M 340 255 Q 348 248 354 252 Q 350 260 342 260 Z" fill="#0e2838" opacity="0.55"/>

  <!-- Seabird silhouettes -->
  <path d="M 145 142 Q 150 138 156 142" stroke="#1a3048" stroke-width="1.8" fill="none" opacity="0.55"/>
  <path d="M 172 132 Q 178 128 184 132" stroke="#1a3048" stroke-width="1.8" fill="none" opacity="0.5"/>
  <path d="M 228 120 Q 234 116 240 120" stroke="#1a3048" stroke-width="1.5" fill="none" opacity="0.42"/>
  <path d="M 340 128 Q 346 124 352 128" stroke="#1a3048" stroke-width="1.5" fill="none" opacity="0.4"/>

  <!-- Dividing line between scenes -->
  <line x1="38" y1="334" x2="426" y2="334" stroke="#283828" stroke-width="2"/>

  <!-- ── BEFORE SCENE 2: FOREST ── -->
  <rect x="38" y="336" width="388" height="252" fill="url(#forestGrad)"/>

  <!-- Sky through trees -->
  <rect x="38" y="336" width="388" height="80" fill="#1a3050" opacity="0.5"/>
  <!-- Distant misty hills -->
  <path d="M 38 400 Q 110 372 190 380 Q 270 388 350 370 Q 400 360 426 368 L 426 416 L 38 416 Z"
        fill="#1a3018" opacity="0.65"/>
  <path d="M 38 408 Q 90 384 165 392 Q 240 400 310 382 Q 370 368 426 378 L 426 420 L 38 420 Z"
        fill="#1e3820" opacity="0.55" filter="url(#blurSm)"/>

  <!-- Forest floor -->
  <rect x="38" y="490" width="388" height="98" fill="#141e0e" opacity="0.9"/>
  <rect x="38" y="530" width="388" height="58" fill="#0e1808" opacity="0.85"/>

  <!-- Tree trunks — dense ancient forest -->
  <g fill="#0e1808" stroke="#0a1206" stroke-width="0.5">
    <rect x="55"  y="400" width="14" height="132" rx="3"/>
    <rect x="85"  y="390" width="18" height="145" rx="3"/>
    <rect x="118" y="405" width="12" height="125" rx="2"/>
    <rect x="145" y="388" width="16" height="148" rx="3"/>
    <rect x="175" y="395" width="13" height="140" rx="2"/>
    <rect x="205" y="385" width="19" height="152" rx="3"/>
    <rect x="238" y="398" width="14" height="138" rx="2"/>
    <rect x="268" y="390" width="17" height="148" rx="3"/>
    <rect x="298" y="402" width="12" height="132" rx="2"/>
    <rect x="322" y="386" width="18" height="152" rx="3"/>
    <rect x="352" y="396" width="14" height="142" rx="2"/>
    <rect x="380" y="388" width="16" height="152" rx="3"/>
    <rect x="408" y="400" width="12" height="140" rx="2"/>
  </g>

  <!-- Tree foliage canopy — layered -->
  <!-- Back layer -->
  <ellipse cx="94"  cy="388" rx="48" ry="38" fill="#1e3818" opacity="0.8"/>
  <ellipse cx="154" cy="380" rx="52" ry="42" fill="#182e14" opacity="0.8"/>
  <ellipse cx="214" cy="376" rx="55" ry="44" fill="#1e3818" opacity="0.85"/>
  <ellipse cx="278" cy="382" rx="50" ry="40" fill="#183018" opacity="0.82"/>
  <ellipse cx="340" cy="378" rx="52" ry="42" fill="#1a3216" opacity="0.8"/>
  <ellipse cx="398" cy="385" rx="46" ry="38" fill="#1e3818" opacity="0.8"/>
  <!-- Front canopy layer, denser -->
  <ellipse cx="64"  cy="404" rx="38" ry="32" fill="#243e1c" opacity="0.9"/>
  <ellipse cx="132" cy="396" rx="44" ry="36" fill="#1e3818" opacity="0.88"/>
  <ellipse cx="192" cy="390" rx="46" ry="38" fill="#243e1c" opacity="0.9"/>
  <ellipse cx="255" cy="394" rx="44" ry="36" fill="#203a18" opacity="0.88"/>
  <ellipse cx="318" cy="390" rx="46" ry="38" fill="#243e1c" opacity="0.9"/>
  <ellipse cx="380" cy="396" rx="42" ry="34" fill="#1e3818" opacity="0.88"/>
  <ellipse cx="420" cy="404" rx="34" ry="28" fill="#243e1c" opacity="0.85"/>

  <!-- Light shafts through forest -->
  <path d="M 95  336 L 80  490" stroke="#c8a830" stroke-width="12" opacity="0.06"/>
  <path d="M 215 336 L 200 490" stroke="#c8a830" stroke-width="10" opacity="0.05"/>
  <path d="M 345 336 L 332 490" stroke="#c8a830" stroke-width="10" opacity="0.055"/>

  <!-- Deer silhouette in forest -->
  <g fill="#0c1608" opacity="0.7">
    <!-- Body -->
    <ellipse cx="310" cy="504" rx="22" ry="12"/>
    <!-- Neck -->
    <rect x="326" y="494" width="8" height="14" rx="3"/>
    <!-- Head -->
    <ellipse cx="332" cy="491" rx="7" ry="6"/>
    <!-- Antlers -->
    <path d="M 332 485 Q 328 476 324 470 Q 320 462 316 458" stroke="#0c1608" stroke-width="2" fill="none" stroke-linecap="round"/>
    <path d="M 324 470 Q 320 465 316 463" stroke="#0c1608" stroke-width="1.5" fill="none" stroke-linecap="round"/>
    <path d="M 332 485 Q 336 476 340 470 Q 344 462 348 458" stroke="#0c1608" stroke-width="2" fill="none" stroke-linecap="round"/>
    <path d="M 340 470 Q 344 465 348 463" stroke="#0c1608" stroke-width="1.5" fill="none" stroke-linecap="round"/>
    <!-- Legs -->
    <line x1="296" y1="514" x2="292" y2="532" stroke="#0c1608" stroke-width="3" stroke-linecap="round"/>
    <line x1="304" y1="516" x2="300" y2="534" stroke="#0c1608" stroke-width="3" stroke-linecap="round"/>
    <line x1="318" y1="516" x2="314" y2="534" stroke="#0c1608" stroke-width="3" stroke-linecap="round"/>
    <line x1="326" y1="514" x2="322" y2="532" stroke="#0c1608" stroke-width="3" stroke-linecap="round"/>
  </g>

  <!-- Forest ferns/undergrowth -->
  <g fill="#182e10" opacity="0.65">
    <path d="M 60 540 Q 54 520 62 512 Q 70 520 68 540 Z"/>
    <path d="M 68 540 Q 76 518 84 514 Q 86 524 78 540 Z"/>
    <path d="M 156 535 Q 150 516 158 508 Q 166 516 164 535 Z"/>
    <path d="M 164 535 Q 172 514 180 510 Q 182 522 174 535 Z"/>
    <path d="M 380 538 Q 374 518 382 510 Q 390 518 388 538 Z"/>
    <path d="M 388 538 Q 396 516 404 512 Q 406 524 398 538 Z"/>
    <path d="M 110 542 Q 104 525 112 518 Q 118 525 116 542 Z"/>
    <path d="M 240 540 Q 234 522 242 515 Q 248 522 246 540 Z"/>
  </g>

  <!-- BEFORE label -->
  <rect x="42" y="96" width="88" height="22" rx="2" fill="#000000" opacity="0.6"/>
  <text x="48" y="112" font-family="monospace" font-size="13" fill="#60c860" opacity="0.92" letter-spacing="1">BEFORE</text>

  <!-- ══════════════════════════════════════ -->
  <!-- RIGHT PANEL — NOW                     -->
  <!-- ══════════════════════════════════════ -->

  <!-- Panel shadow -->
  <rect x="472" y="94" width="392" height="498" rx="3" fill="#000" opacity="0.55"/>
  <!-- Panel border -->
  <rect x="470" y="92" width="392" height="498" rx="3" fill="#141410" stroke="#282818" stroke-width="1.5"/>

  <!-- ── NOW SCENE 1: TOXIC SKY / WASTELAND ── -->
  <!-- Sky — smoggy, yellow-grey -->
  <rect x="472" y="94" width="388" height="240" fill="url(#skyNow)"/>

  <!-- Smog clouds — heavy, yellowish -->
  <ellipse cx="545" cy="125" rx="85" ry="35" fill="#2e2818" opacity="0.7" filter="url(#blurSm)"/>
  <ellipse cx="530" cy="120" rx="68" ry="28" fill="#3a3020" opacity="0.65" filter="url(#blurSm)"/>
  <ellipse cx="560" cy="130" rx="58" ry="22" fill="#2e2818" opacity="0.6"/>
  <ellipse cx="728" cy="112" rx="78" ry="30" fill="#302c18" opacity="0.65" filter="url(#blurSm)"/>
  <ellipse cx="712" cy="108" rx="60" ry="22" fill="#3a3420" opacity="0.6"/>
  <ellipse cx="745" cy="118" rx="52" ry="18" fill="#282410" opacity="0.65"/>
  <!-- Smog haze layer -->
  <rect x="472" y="94" width="388" height="150" fill="#28200c" opacity="0.18"/>

  <!-- Industrial chimneys silhouettes -->
  <g fill="#0c0c08">
    <rect x="490" y="160" width="22" height="100" rx="2"/>
    <rect x="520" y="148" width="18" height="112" rx="2"/>
    <rect x="548" y="165" width="16" height="95"  rx="2"/>
    <!-- Chimney tops -->
    <ellipse cx="501" cy="160" rx="13" ry="5"/>
    <ellipse cx="529" cy="148" rx="11" ry="4"/>
    <ellipse cx="556" cy="165" rx="10" ry="4"/>
  </g>
  <!-- Smoke plumes from chimneys -->
  <ellipse cx="501" cy="148" rx="18" ry="22" fill="#302c18" opacity="0.55" filter="url(#blurMed)"/>
  <ellipse cx="498" cy="132" rx="22" ry="18" fill="#282410" opacity="0.45" filter="url(#blurMed)"/>
  <ellipse cx="529" cy="136" rx="16" ry="20" fill="#302c18" opacity="0.5"  filter="url(#blurMed)"/>
  <ellipse cx="527" cy="120" rx="20" ry="16" fill="#282410" opacity="0.4"  filter="url(#blurMed)"/>
  <ellipse cx="556" cy="150" rx="14" ry="18" fill="#282c18" opacity="0.48" filter="url(#blurMed)"/>

  <!-- Dead sun through smog — sickly orange disc -->
  <circle cx="726" cy="130" r="28" fill="#c87820" opacity="0.25" filter="url(#blurLg)"/>
  <circle cx="726" cy="130" r="18" fill="#d08018" opacity="0.35" filter="url(#blurMed)"/>
  <circle cx="726" cy="130" r="10" fill="#c87018" opacity="0.45"/>

  <!-- Toxic / polluted water — murky brown-grey -->
  <rect x="472" y="210" width="388" height="124" fill="url(#waterNow)"/>
  <!-- Oily film on water surface — rainbow sheen (muted) -->
  <path d="M 480 218 Q 560 214 640 220 Q 720 226 856 218" stroke="#3a3818" stroke-width="6" fill="none" opacity="0.4"/>
  <path d="M 476 230 Q 558 226 638 232 Q 720 238 858 230" stroke="#2e2c14" stroke-width="5" fill="none" opacity="0.35"/>
  <path d="M 478 242 Q 562 238 642 244 Q 724 250 858 242" stroke="#3a3010" stroke-width="4" fill="none" opacity="0.3"/>
  <!-- Floating garbage on water -->
  <rect x="510" y="248" width="28" height="14" rx="2" fill="#1e1c10" opacity="0.8"/>
  <rect x="554" y="256" width="18" height="10" rx="1" fill="#241e10" opacity="0.75"/>
  <ellipse cx="608" cy="268" rx="14" ry="6" fill="#201c0e" opacity="0.75"/>
  <rect x="650" y="252" width="22" height="12" rx="2" fill="#1c1a0c" opacity="0.78"/>
  <rect x="700" y="262" width="16" height="9"  rx="1" fill="#221e10" opacity="0.72"/>
  <ellipse cx="748" cy="270" rx="12" ry="5"  fill="#1e1a0c" opacity="0.7"/>
  <rect x="788" y="255" width="20" height="11" rx="2" fill="#1c1808" opacity="0.72"/>
  <!-- Foam/scum on water -->
  <path d="M 476 280 Q 550 276 620 282 Q 688 288 750 280 Q 800 274 858 280"
        stroke="#282612" stroke-width="3" fill="none" opacity="0.3"/>
  <path d="M 476 295 Q 555 290 625 296 Q 700 302 755 295 Q 810 288 858 295"
        stroke="#242210" stroke-width="2.5" fill="none" opacity="0.25"/>
  <!-- Oil slick rainbow patch -->
  <ellipse cx="620" cy="295" rx="58" ry="18" fill="#302e18" opacity="0.22"/>
  <ellipse cx="625" cy="295" rx="42" ry="12" fill="#383420" opacity="0.18"/>
  <!-- Dead fish silhouette -->
  <path d="M 740 285 Q 756 282 768 285 Q 776 288 772 292 Q 764 296 752 294 Q 740 291 740 286 Z"
        fill="#181608" opacity="0.7"/>
  <path d="M 740 287 Q 734 283 732 287 Q 734 291 740 289 Z" fill="#181608" opacity="0.65"/>

  <!-- Dividing line -->
  <line x1="472" y1="334" x2="858" y2="334" stroke="#242014" stroke-width="2"/>

  <!-- ── NOW SCENE 2: WASTE DUMP ── -->
  <rect x="472" y="336" width="388" height="252" fill="url(#wasteGrad)"/>

  <!-- Overcast sky fragment at top of scene -->
  <rect x="472" y="336" width="388" height="70" fill="#201e14" opacity="0.6"/>

  <!-- Ground — ashy, cracked earth -->
  <rect x="472" y="490" width="388" height="98" fill="#1a1610" opacity="0.9"/>
  <!-- Cracked earth lines -->
  <g stroke="#120e08" stroke-width="1" fill="none" opacity="0.6">
    <path d="M 480 498 Q 510 495 540 500 Q 570 505 600 498 Q 630 491 660 498"/>
    <path d="M 550 512 Q 575 508 602 514 Q 628 520 655 513"/>
    <path d="M 670 502 Q 695 498 722 504 Q 748 510 775 503 Q 800 496 830 504"/>
    <path d="M 490 525 Q 520 521 550 527"/>
    <path d="M 700 520 Q 728 516 758 522 Q 786 528 812 521"/>
  </g>

  <!-- Industrial ruin — collapsed structure right side -->
  <g fill="#0e0c08" stroke="#181410" stroke-width="0.5">
    <!-- Broken wall sections -->
    <rect x="720" y="390" width="38" height="148" rx="1" opacity="0.9"/>
    <rect x="760" y="408" width="28" height="128" rx="1" opacity="0.85"/>
    <rect x="790" y="425" width="22" height="112" rx="1" opacity="0.8"/>
    <!-- Collapsed rubble at base -->
    <path d="M 715 535 Q 730 528 748 532 Q 762 528 775 535 Q 790 530 808 535 Q 820 530 840 536 L 858 545 L 715 548 Z"
          fill="#141208" opacity="0.9"/>
    <!-- Broken beam angled -->
    <rect x="730" y="382" width="8" height="90" rx="2" transform="rotate(-18, 734, 420)" opacity="0.8"/>
    <!-- Broken window openings -->
    <rect x="726" y="405" width="16" height="18" rx="1" fill="#080806"/>
    <rect x="726" y="432" width="16" height="18" rx="1" fill="#080806"/>
    <rect x="726" y="458" width="16" height="18" rx="1" fill="#080806"/>
  </g>

  <!-- Garbage heap — left/centre -->
  <!-- Large mound outline -->
  <path d="M 472 545 Q 510 518 545 528 Q 565 522 580 530 Q 600 520 618 528 Q 638 518 658 526 Q 678 515 695 525 Q 710 515 725 525 L 725 590 L 472 590 Z"
        fill="#181410" opacity="0.85"/>
  <!-- Garbage items scattered -->
  <!-- Plastic bags -->
  <ellipse cx="494" cy="535" rx="16" ry="10" fill="#1e1c10" opacity="0.8"/>
  <ellipse cx="516" cy="525" rx="12" ry="8"  fill="#201e10" opacity="0.75"/>
  <!-- Cans/metal debris -->
  <rect x="532" y="528" width="12" height="16" rx="2" fill="#1a1810" opacity="0.82"/>
  <rect x="548" y="522" width="10" height="14" rx="2" fill="#181608" opacity="0.78"/>
  <!-- Old TV set silhouette -->
  <rect x="560" y="516" width="32" height="26" rx="2" fill="#141210" opacity="0.85"/>
  <rect x="563" y="519" width="26" height="20" rx="1" fill="#0a0a08" opacity="0.9"/>
  <rect x="572" y="541" width="12" height="4"  rx="1" fill="#141210" opacity="0.8"/>
  <!-- More garbage -->
  <ellipse cx="608" cy="530" rx="14" ry="9"  fill="#1a1810" opacity="0.78"/>
  <rect x="622" y="524" width="18" height="12" rx="2" fill="#181610" opacity="0.8"/>
  <ellipse cx="650" cy="528" rx="16" ry="10" fill="#1c1a0e" opacity="0.75"/>
  <rect x="665" y="519" width="14" height="18" rx="2" fill="#161410" opacity="0.82"/>
  <ellipse cx="688" cy="530" rx="12" ry="8"  fill="#181610" opacity="0.72"/>
  <rect x="698" y="522" width="10" height="14" rx="2" fill="#141210" opacity="0.78"/>

  <!-- Crow silhouette on rubble -->
  <g fill="#0a0808" opacity="0.75">
    <ellipse cx="738" cy="388" rx="10" ry="7"/>
    <path d="M 744 384 Q 750 380 748 385 Q 744 387 744 384 Z"/><!-- beak -->
    <line x1="734" y1="394" x2="730" y2="404" stroke="#0a0808" stroke-width="2.5" stroke-linecap="round"/>
    <line x1="740" y1="395" x2="738" y2="405" stroke="#0a0808" stroke-width="2.5" stroke-linecap="round"/>
  </g>
  <!-- Second crow flying -->
  <path d="M 570 358 Q 576 354 582 358" stroke="#0e0c08" stroke-width="2" fill="none" opacity="0.6"/>
  <path d="M 558 365 Q 564 360 570 365" stroke="#0e0c08" stroke-width="1.8" fill="none" opacity="0.55"/>

  <!-- NOW label -->
  <rect x="476" y="96" width="56" height="22" rx="2" fill="#000000" opacity="0.6"/>
  <text x="482" y="112" font-family="monospace" font-size="13" fill="#c84030" opacity="0.92" letter-spacing="1">NOW</text>

  <!-- ══════════════════════════════════════ -->
  <!-- VHS TAPE OVERLAY EFFECTS              -->
  <!-- ══════════════════════════════════════ -->

  <!-- Scanlines covering entire image -->
  <rect x="0" y="0" width="900" height="700" fill="url(#scanlinePattern)" opacity="0.85"/>

  <!-- Static snow grain -->
  <rect x="0" y="0" width="900" height="700" fill="url(#snowPattern)" opacity="0.9"/>

  <!-- Horizontal glitch bands — tape damage artifacts -->
  <!-- Band 1 — slight horizontal shift near top -->
  <rect x="0" y="152" width="900" height="4" fill="#a0a888" opacity="0.06"/>
  <rect x="0" y="153" width="900" height="2" fill="#000000" opacity="0.12"/>
  <!-- Band 2 — mid-frame glitch -->
  <rect x="0" y="298" width="900" height="3" fill="#888" opacity="0.07"/>
  <rect x="0" y="299" width="900" height="1" fill="#000" opacity="0.15"/>
  <!-- Band 3 — lower area glitch -->
  <rect x="0" y="478" width="900" height="4" fill="#908878" opacity="0.055"/>
  <rect x="0" y="479" width="900" height="2" fill="#000" opacity="0.1"/>
  <!-- Band 4 — top border bleed -->
  <rect x="0" y="88"  width="900" height="2" fill="#c0c8a0" opacity="0.05"/>

  <!-- VHS horizontal colour bleed strip (tape wobble) -->
  <rect x="0" y="210" width="900" height="3" fill="#8a6820" opacity="0.08"/>
  <rect x="0" y="334" width="900" height="3" fill="#8a6820" opacity="0.07"/>

  <!-- Tape edge bleed — left side signal noise -->
  <rect x="0" y="78" width="6" height="622" fill="#202818" opacity="0.35"/>
  <rect x="894" y="78" width="6" height="622" fill="#202818" opacity="0.3"/>

  <!-- Overall VHS colour tint and desaturation -->
  <rect x="0" y="0" width="900" height="700" fill="#181c10" opacity="0.14"/>
  <!-- Slight green phosphor tint on whites -->
  <rect x="0" y="78" width="900" height="622" fill="#102018" opacity="0.08"/>

  <!-- ══════════════════════════════════════ -->
  <!-- DIVIDER LINE between panels            -->
  <!-- ══════════════════════════════════════ -->
  <line x1="452" y1="92" x2="452" y2="590" stroke="#080c08" stroke-width="4"/>
  <line x1="454" y1="92" x2="454" y2="590" stroke="#282e20" stroke-width="1" opacity="0.4"/>

  <!-- ══════════════════════════════════════ -->
  <!-- BOTTOM BAR — message                  -->
  <!-- ══════════════════════════════════════ -->
  <rect x="0" y="592" width="900" height="108" fill="#000000" opacity="0.82"/>
  <line x1="0" y1="592" x2="900" y2="592" stroke="#282e18" stroke-width="1.5"/>

  <!-- Tape tracking marks -->
  <rect x="0" y="592" width="900" height="3" fill="#404830" opacity="0.2"/>

  <!-- Main final text -->
  <text x="450" y="628" font-family="monospace" font-size="12" fill="#a8b080" text-anchor="middle" opacity="0.88" letter-spacing="0.8">
    THIS IS WHAT WE ARE LEAVING BEHIND.
  </text>
  <text x="450" y="650" font-family="monospace" font-size="11" fill="#888870" text-anchor="middle" opacity="0.78" letter-spacing="0.5">
    PLEASE REMEMBER. PLEASE PASS IT ON.
  </text>

  <!-- Small VHS timestamp at bottom left -->
  <text x="22" y="685" font-family="monospace" font-size="9" fill="#406040" opacity="0.6">CH-07  SP  ■ REC</text>
  <!-- Small tracking info bottom right -->
  <text x="878" y="685" font-family="monospace" font-size="9" fill="#406040" opacity="0.55" text-anchor="end">T-120  HI-FI</text>

  <!-- Final vignette -->
  <rect x="0" y="0" width="900" height="700" fill="url(#vignette)"/>

  <!-- Very subtle tape horizontal jitter on a few lines (simulated by thin offset rects) -->
  <rect x="3" y="185" width="897" height="2" fill="#101810" opacity="0.04" transform="translate(2,0)"/>
  <rect x="0" y="362" width="900" height="2" fill="#101810" opacity="0.035" transform="translate(-1,0)"/>
  <rect x="0" y="528" width="900" height="2" fill="#101810" opacity="0.04" transform="translate(1,0)"/>

</svg>
